#!OML:ASF H:\Not Pregnant\Project 1\Capture day 1\Session 1\non-pregnant.ASF
:FULLY-SPECIFIED
:DEGREES
1497
root 1.8907 16.2226 6.4199 510.099 80.2159 138.658
lowerback -0.22195 -2.52125 -8.94203
upperback -7.85884 -3.56607 -1.2977
thorax -7.73097 -1.0895 3.80954
lowerneck 25.6374 -11.8537 -31.4242
upperneck -9.34619 -22.3688 41.426
head 2.59572 -13.8232 20.8391
rclavicle 3.16813e-015 -1.09332e-014
rhumerus -46.8086 -19.8049 -68.6272
rradius 21.0361
rwrist 31.4752
rhand -8.00998 -1.16293
rfingers 7.12502
rthumb 17.8992 -30.3592
lclavicle 3.16813e-015 -1.09332e-014
lhumerus -42.2416 -5.61565 86.2619
lradius 42.2988
lwrist 40.7939
lhand -17.0406 -12.7263
lfingers 7.12502
lthumb 9.19617 17.0532
rfemur -45.7015 -5.67564 19.0402
rtibia 24.4588
rfoot -10.4161 5.394
rtoes -23.3992
lfemur -1.48249 9.0426 -30.2092
ltibia 15.2599
lfoot -18.326 -16.181
ltoes -3.71017
1498
root 2.02097 16.2158 6.42175 511.794 79.8732 140.328
lowerback -0.392721 -2.56761 -8.90019
upperback -7.88337 -3.60309 -1.29378
thorax -7.65425 -1.11144 3.78419
lowerneck 25.7912 -11.908 -31.4183
upperneck -9.54195 -22.4401 41.462
head 2.55404 -13.8774 20.8564
rclavicle -6.58474e-016 1.98785e-016
rhumerus -47.5308 -20.3551 -67.739
rradius 20.6834
rwrist 32.4024
rhand -7.65995 -1.18076
rfingers 7.12502
rthumb 18.236 -30.3459
lclavicle -6.58474e-016 1.98785e-016
lhumerus -42.5217 -5.54279 86.2742
lradius 42.0138
lwrist 40.6438
lhand -16.9142 -12.681
lfingers 7.12502
lthumb 9.31809 17.0931
rfemur -45.5025 -6.02382 19.2433
rtibia 24.2386
rfoot -10.569 5.87416
rtoes -22.7624
lfemur -0.780625 8.4981 -30.0054
ltibia 14.8131
lfoot -18.0564 -16.1171
ltoes -4.53853
1499
root 2.15277 16.207 6.42365 513.329 79.5444 141.846
lowerback -0.566361 -2.6057 -8.85031
upperback -7.90834 -3.62842 -1.28649
thorax -7.57809 -1.128 3.75718
lowerneck 25.9394 -11.9588 -31.4202
upperneck -9.7295 -22.5099 41.4879
head 2.51398 -13.9292 20.8693
rclavicle 2.16054e-014 2.98177e-014
rhumerus -48.2383 -20.7598 -66.9461
rradius 20.3995
rwrist 33.2028
rhand -7.25908 -1.17861
rfingers 7.12502
rthumb 18.6216 -30.3073
lclavicle 2.16054e-014 2.98177e-014
lhumerus -42.8145 -5.43315 86.2679
lradius 41.6939
lwrist 40.4654
lhand -16.7978 -12.6394
lfingers 7.12502
lthumb 9.43043 17.1296
rfemur -45.2165 -6.18078 19.3312
rtibia 24.1404
rfoot -10.7013 6.26177
rtoes -22.1713
lfemur -0.127051 7.98125 -29.793
ltibia 14.4816
lfoot -17.8195 -16.0579
ltoes -5.37923
1500
root 2.28567 16.1965 6.42666 514.723 79.2278 143.221
lowerback -0.749753 -2.63459 -8.80746
upperback -7.9371 -3.64051 -1.27819
thorax -7.50194 -1.13721 3.73404
lowerneck 26.0872 -12.009 -31.4226
upperneck -9.91385 -22.5796 41.5067
head 2.47343 -13.9802 20.8783
rclavicle -1.06847e-015 -1.27222e-014
rhumerus -48.9396 -21.0712 -66.2342
rradius 20.1797
rwrist 33.9027
rhand -6.85777 -1.16128
rfingers 7.12502
rthumb 19.0076 -30.2525
lclavicle -1.06847e-015 -1.27222e-014
lhumerus -43.1176 -5.29684 86.2381
lradius 41.3407
lwrist 40.263
lhand -16.6761 -12.5916
lfingers 7.12502
lthumb 9.54787 17.1721
rfemur -44.8511 -6.13972 19.3093
rtibia 24.1526
rfoot -10.8211 6.51175
rtoes -21.6529
lfemur 0.465378 7.51836 -29.5677
ltibia 14.2594
lfoot -17.5901 -16.055
ltoes -6.13341
1501
root 2.42008 16.1847 6.4305 515.981 78.9328 144.459
lowerback -0.947825 -2.65823 -8.77861
upperback -7.96823 -3.64378 -1.2561
thorax -7.41969 -1.1408 3.73213
lowerneck 26.2239 -12.0489 -31.4483
upperneck -10.0857 -22.6441 41.5178
head 2.43776 -14.0266 20.8874
rclavicle 1.61388e-014 5.66536e-015
rhumerus -49.5925 -21.2034 -65.6582
rradius 20.0246
rwrist 34.42
rhand -6.43729 -1.14016
rfingers 7.12502
rthumb 19.4119 -30.1912
lclavicle 1.61388e-014 5.66536e-015
lhumerus -43.4369 -5.1199 86.1936
lradius 40.9622
lwrist 40.0523
lhand -16.5601 -12.5383
lfingers 7.12502
lthumb 9.65975 17.2202
rfemur -44.4221 -5.95203 19.2307
rtibia 24.2693
rfoot -10.9064 6.66632
rtoes -21.242
lfemur 1.02181 7.1058 -29.33
ltibia 14.1083
lfoot -17.3641 -16.0839
ltoes -6.88195
1502
root 2.55542 16.174 6.43586 517.166 78.6491 145.609
lowerback -1.15844 -2.68265 -8.75884
upperback -8.01266 -3.64662 -1.22701
thorax -7.34412 -1.14222 3.74217
lowerneck 26.3554 -12.079 -31.4863
upperneck -10.2404 -22.7022 41.5163
head 2.40404 -14.0677 20.8933
rclavicle -2.12451e-014 -1.2921e-014
rhumerus -50.2278 -21.248 -65.1719
rradius 19.9257
rwrist 34.8466
rhand -6.06761 -1.13504
rfingers 7.12502
rthumb 19.7674 -30.1499
lclavicle -2.12451e-014 -1.2921e-014
lhumerus -43.7757 -4.88509 86.1091
lradius 40.5552
lwrist 39.8031
lhand -16.431 -12.4643
lfingers 7.12502
lthumb 9.78437 17.2884
rfemur -43.987 -5.69275 19.1487
rtibia 24.4795
rfoot -10.8604 6.80104
rtoes -20.7277
lfemur 1.55464 6.75171 -29.073
ltibia 13.9646
lfoot -17.0867 -16.1921
ltoes -7.53718
1503
root 2.6921 16.1664 6.44174 518.267 78.3827 146.657
lowerback -1.3885 -2.70408 -8.74179
upperback -8.07092 -3.64293 -1.19265
thorax -7.27294 -1.13899 3.75829
lowerneck 26.488 -12.0973 -31.5395
upperneck -10.3797 -22.7533 41.5056
head 2.37163 -14.1041 20.8996
rclavicle -1.6934e-014 -1.0635e-014
rhumerus -50.8393 -21.2094 -64.7704
rradius 19.8741
rwrist 35.1649
rhand -5.71568 -1.12192
rfingers 7.12502
rthumb 20.1056 -30.1016
lclavicle -1.6934e-014 -1.0635e-014
lhumerus -44.1391 -4.62177 85.9986
lradius 40.1289
lwrist 39.5465
lhand -16.2883 -12.3643
lfingers 7.12502
lthumb 9.92199 17.3819
rfemur -43.6027 -5.45099 19.1201
rtibia 24.7715
rfoot -10.6291 6.99011
rtoes -20.0857
lfemur 2.10683 6.42206 -28.8087
ltibia 13.7428
lfoot -16.7186 -16.333
ltoes -8.17444
